<svg width="482" height="273" viewBox="0 0 482 273" fill="none" xmlns="http://www.w3.org/2000/svg">
<g filter="url(#filter0_di_112_130)">
<path d="M196.2 180H98.7L80.1 225H30.3L123.9 15H171.9L265.8 225H214.8L196.2 180ZM180.9 143.1L147.6 62.7L114.3 143.1H180.9Z" fill="#2B9ED0"/>
<path d="M373.387 61.2C398.387 61.2 417.587 67.2 430.987 79.2C444.387 91 451.087 108.9 451.087 132.9V225H407.288V204.9C398.488 219.9 382.087 227.4 358.087 227.4C345.688 227.4 334.888 225.3 325.688 221.1C316.688 216.9 309.787 211.1 304.987 203.7C300.188 196.3 297.787 187.9 297.787 178.5C297.787 163.5 303.387 151.7 314.587 143.1C325.987 134.5 343.487 130.2 367.087 130.2H404.288C404.288 120 401.188 112.2 394.987 106.8C388.787 101.2 379.487 98.4 367.087 98.4C358.487 98.4 349.987 99.8 341.587 102.6C333.387 105.2 326.387 108.8 320.587 113.4L303.787 80.7C312.587 74.5 323.087 69.7 335.287 66.3C347.687 62.9 360.387 61.2 373.387 61.2ZM369.788 195.9C377.788 195.9 384.887 194.1 391.087 190.5C397.288 186.7 401.688 181.2 404.288 174V157.5H372.188C352.987 157.5 343.387 163.8 343.387 176.4C343.387 182.4 345.688 187.2 350.288 190.8C355.087 194.2 361.587 195.9 369.788 195.9Z" fill="#2B9ED0"/>
</g>
<defs>
<filter id="filter0_di_112_130" x="0.299988" y="0" width="480.788" height="272.4" filterUnits="userSpaceOnUse" color-interpolation-filters="sRGB">
<feFlood flood-opacity="0" result="BackgroundImageFix"/>
<feColorMatrix in="SourceAlpha" type="matrix" values="0 0 0 0 0 0 0 0 0 0 0 0 0 0 0 0 0 0 127 0" result="hardAlpha"/>
<feOffset dy="15"/>
<feGaussianBlur stdDeviation="15"/>
<feComposite in2="hardAlpha" operator="out"/>
<feColorMatrix type="matrix" values="0 0 0 0 0.0991667 0 0 0 0 0.425 0 0 0 0 0.566667 0 0 0 0.15 0"/>
<feBlend mode="normal" in2="BackgroundImageFix" result="effect1_dropShadow_112_130"/>
<feBlend mode="normal" in="SourceGraphic" in2="effect1_dropShadow_112_130" result="shape"/>
<feColorMatrix in="SourceAlpha" type="matrix" values="0 0 0 0 0 0 0 0 0 0 0 0 0 0 0 0 0 0 127 0" result="hardAlpha"/>
<feOffset dy="-5"/>
<feGaussianBlur stdDeviation="7.5"/>
<feComposite in2="hardAlpha" operator="arithmetic" k2="-1" k3="1"/>
<feColorMatrix type="matrix" values="0 0 0 0 0 0 0 0 0 0.575 0 0 0 0 0.825 0 0 0 1 0"/>
<feBlend mode="normal" in2="shape" result="effect2_innerShadow_112_130"/>
</filter>
</defs>
</svg>
