<svg width="99" height="104" viewBox="0 0 99 104" fill="none" xmlns="http://www.w3.org/2000/svg">
<path d="M58.0987 76.2539L58.1497 76.0575L58.0496 75.8811L50.1377 61.9451L49.7029 61.1793L49.268 61.9451L41.3562 75.8811L41.2648 76.0421L41.3002 76.2237L41.9088 79.3437L41.912 79.3599L41.9162 79.3758L47.6713 101.147L39.1026 103.39L35.1736 88.6869L34.8549 87.4941L34.2538 88.5726L30.447 95.4029L22.583 90.7152L26.404 83.8594L26.9862 82.8148L25.8337 83.1341L11.3185 87.1564L9.12099 78.1441L30.3481 72.2454L33.1749 71.6243L33.3943 71.5761L33.504 71.3801L41.4159 57.2361L41.8321 56.492H40.9795H25.1557H24.9308L24.7816 56.6603L22.7619 58.9382L7.10268 74.7902L0.698442 68.224L11.3129 57.3411L12.141 56.492H10.9549H3.34016V47.3H10.9549H12.141L11.3129 46.4509L0.698438 35.568L7.10041 29.0041L22.7691 45.0691L24.7978 47.1491L24.945 47.3H25.1557H40.9795H41.8383L41.4143 46.5531L33.5024 32.6171L33.4025 32.4411L33.2082 32.3842L30.368 31.5522L30.3681 31.552L30.357 31.5491L9.13111 25.8541L11.5115 16.8427L25.832 20.8654L26.9699 21.185L26.4068 20.1458L22.5781 13.0797L30.4418 8.39221L34.251 15.4222L34.8494 16.5266L35.1736 15.3131L39.1032 0.607231L47.8746 2.85554L42.1197 24.8297L42.1188 24.8333L41.3093 27.7378L41.253 27.9399L41.3578 28.1217L49.2697 41.8497L49.7085 42.6111L50.1388 41.8448L57.8478 28.1168L57.949 27.9367L57.8935 27.7378L57.0837 24.8316L51.5264 2.85413L60.1003 0.609681L64.0292 15.3131L64.344 16.4909L64.9469 15.4313L68.9548 8.38674L76.819 13.0746L72.8011 20.1367L72.1993 21.1945L73.3709 20.8654L87.6914 16.8427L90.0717 25.8541L68.8458 31.5491L68.8458 31.549L68.8348 31.5522L65.9947 32.3842L65.8004 32.4411L65.7004 32.6171L57.7885 46.5531L57.3645 47.3H58.2234H73.8443H74.0411L74.1852 47.1657L76.4167 45.0858L76.4266 45.0765L76.436 45.0668L91.9019 29.0064L98.3016 35.568L87.6871 46.4509L86.859 47.3H88.0451H96.0656V56.492H88.0451H86.859L87.6871 57.3411L98.3016 68.224L91.8996 74.7879L76.4338 58.9309L74.2022 56.6429L74.055 56.492H73.8443H58.2234H57.3708L57.787 57.2361L65.6989 71.3801L65.8085 71.5761L66.0279 71.6243L68.8553 72.2455L90.2754 78.1427L87.8938 87.159L73.3692 83.1341L72.1818 82.8051L72.8041 83.8685L76.8139 90.7205L68.9587 95.4029L65.1519 88.5726L64.5508 87.4941L64.2321 88.6869L60.3025 103.393L51.5322 101.145L57.2867 79.3758L57.2872 79.3739L58.0987 76.2539Z" fill="white" stroke="#0F9EDC"/>
</svg>
