<svg width="99" height="104" viewBox="0 0 99 104" fill="none" xmlns="http://www.w3.org/2000/svg">
<path d="M57.6148 76.128L56.8033 79.248L50.9201 101.504L60.6578 104L64.7152 88.816L68.7725 96.096L77.4959 90.896L73.2357 83.616L88.2479 87.776L90.8852 77.792L68.9754 71.76L66.1352 71.136L58.2234 56.992H73.8443L76.0758 59.28L91.8996 75.504L99 68.224L88.0451 56.992H96.5656V46.8H88.0451L99 35.568L91.8996 28.288L76.0758 44.72L73.8443 46.8H58.2234L66.1352 32.864L68.9754 32.032L90.6824 26.208L88.0451 16.224L73.2357 20.384L77.4959 12.896L68.7725 7.696L64.5123 15.184L60.4549 0L50.9201 2.496L56.6004 24.96L57.4119 27.872L49.7029 41.6L41.791 27.872L42.6025 24.96L48.4856 2.496L38.7479 0L34.6906 15.184L30.6332 7.696L21.9098 12.896L25.9672 20.384L11.1578 16.224L8.52049 26.208L30.2275 32.032L33.0676 32.864L40.9795 46.8H25.1557L23.127 44.72L7.10041 28.288L0 35.568L10.9549 46.8H2.84016V56.992H10.9549L0 68.224L7.10041 75.504L23.127 59.28L25.1557 56.992H40.9795L33.0676 71.136L30.2275 71.76L8.52049 77.792L10.9549 87.776L25.9672 83.616L21.9098 90.896L30.6332 96.096L34.6906 88.816L38.7479 104L48.2828 101.504L42.3996 79.248L41.791 76.128L49.7029 62.192L57.6148 76.128Z" fill="#FDCAF4"/>
</svg>
